<svg width="58" height="59" viewBox="0 0 58 59" fill="none" xmlns="http://www.w3.org/2000/svg">
<path d="M26.1207 0.0799556C29.3213 -0.256416 32.6268 0.474497 35.3709 2.16015C38.3868 3.98996 40.7098 6.92879 41.7809 10.2912C42.8216 13.5108 42.7141 17.0882 41.4749 20.2382C40.18 23.5716 37.6332 26.3954 34.4503 28.0266C31.5203 29.5517 28.0681 30.0309 24.8283 29.4012C21.3761 28.7424 18.1932 26.7975 16.0194 24.037C13.8785 21.3523 12.7265 17.9026 12.8264 14.4693C12.896 10.835 14.378 7.25757 16.8894 4.63235C19.2934 2.07795 22.6305 0.430237 26.1207 0.0799556Z" fill="white"/>
<path d="M42.9637 29.7186C45.8861 29.534 48.8641 30.275 51.3439 31.8393C53.763 33.3491 55.7066 35.6076 56.8396 38.224C58.653 42.3452 58.3255 47.3301 55.9658 51.168C53.7503 54.8782 49.7569 57.4655 45.4549 57.9207C42.7525 58.2331 39.9629 57.7487 37.5325 56.5284C34.8175 55.1792 32.559 52.9346 31.1958 50.2259C29.8984 47.6753 29.4204 44.7238 29.8174 41.8912C30.2942 38.3315 32.2112 35.0006 35.0249 32.775C37.2745 30.973 40.0856 29.888 42.9637 29.7186ZM43.2242 35.1574C42.1848 35.3889 41.3388 36.2955 41.1807 37.3489C41.0075 38.3492 41.4602 39.4241 42.3024 39.9918C43.051 40.5305 44.0828 40.6279 44.9238 40.2523C45.857 39.8553 46.5146 38.8891 46.5361 37.8737C46.5727 37.0265 46.1757 36.1792 45.5067 35.662C44.8745 35.1574 44.0095 34.9703 43.2242 35.1574ZM43.4721 41.8634C42.5578 42.0177 41.8218 42.8725 41.8231 43.8032C41.8168 46.0832 41.818 48.3632 41.8231 50.6432C41.8003 51.9672 43.2976 52.9991 44.528 52.4996C45.2955 52.2251 45.8633 51.455 45.8621 50.6343C45.8684 48.3645 45.8684 46.0933 45.8633 43.8234C45.8823 42.6183 44.6532 41.6029 43.4721 41.8634Z" fill="white"/>
<path d="M15.4191 33.4946C20.7226 32.1402 26.2512 31.7457 31.704 32.1567C28.8018 35.1549 27.0694 39.2571 26.991 43.4327C26.8557 47.7903 28.5236 52.1518 31.4991 55.3334C22.493 55.3334 13.4881 55.3423 4.48198 55.3296C2.26522 55.3208 0.246993 53.4859 0.0396069 51.2767C-0.0375308 49.9274 0.0256967 48.5731 0.00419931 47.2213C-0.0274145 45.9643 0.183766 44.701 0.66556 43.5376C1.64685 41.1401 3.52345 39.2205 5.62008 37.7536C8.56901 35.7088 11.9643 34.4025 15.4191 33.4946Z" fill="white"/>
</svg>
