<svg width="47" height="65" viewBox="0 0 47 65" fill="none" xmlns="http://www.w3.org/2000/svg">
<path d="M23.3556 0H23.367C24.9514 1.00166 26.5218 2.02871 28.1125 3.01895C29.999 2.87422 31.8805 2.57842 33.7644 2.37148C34.7534 3.97871 35.7424 5.58467 36.7326 7.19063C38.5227 7.80381 40.3152 8.4043 42.1015 9.02637C42.2868 10.8443 42.4798 12.661 42.6753 14.4777C42.6905 14.7697 42.9876 14.9157 43.1602 15.1163C44.3485 16.297 45.5635 17.451 46.7302 18.652C46.0865 20.423 45.4149 22.1901 44.8297 23.9789C45.434 25.7588 46.1018 27.5209 46.7264 29.2957C45.3819 30.6249 44.0299 31.9439 42.688 33.277C42.4937 35.1521 42.2957 37.0272 42.0951 38.9022C40.3533 39.5053 38.6026 40.0855 36.8608 40.6885C36.7098 40.7291 36.6488 40.8878 36.5625 41.0021C35.6345 42.5217 34.695 44.035 33.7619 45.5521C31.897 45.3337 30.0346 45.0773 28.1671 44.8906C26.5395 45.8529 24.9729 46.9244 23.3645 47.9223C21.8854 46.9714 20.3976 46.0345 18.9211 45.0798C18.7662 44.9998 18.6151 44.8487 18.4272 44.8944C16.6067 45.1191 14.7875 45.3426 12.9657 45.5521C12.0136 44.0108 11.064 42.4684 10.1156 40.9259C10.0395 40.785 9.91631 40.6821 9.76016 40.6466C8.04756 40.0753 6.34385 39.4748 4.63125 38.9022C4.41924 37.0322 4.2542 35.1546 4.02314 33.2871C2.71934 31.9224 1.33301 30.6313 0 29.2919C0.638574 27.5184 1.27461 25.7436 1.91572 23.9713C1.29746 22.1749 0.603028 20.4026 0.0101565 18.5974C1.37109 17.3101 2.68125 15.9707 4.02695 14.6682C4.23643 12.7905 4.42939 10.9104 4.6249 9.03145C6.40986 8.40811 8.20371 7.80889 9.99248 7.19316C10.984 5.58721 11.9742 3.97871 12.9645 2.37148C14.7596 2.57715 16.5547 2.79678 18.3473 3.02148C18.506 3.04941 18.6659 3.02148 18.7941 2.92246C20.3112 1.94238 21.8436 0.986426 23.3556 0ZM22.392 7.56133C20.051 7.69717 17.7404 8.34463 15.6711 9.44912C12.4922 11.1325 9.89346 13.8874 8.40684 17.1641C6.96211 20.3112 6.56855 23.9218 7.27822 27.3089C8.02471 30.9588 10.0775 34.3154 12.9619 36.6666C15.5987 38.8388 18.9287 40.1566 22.3399 40.3571C25.7562 40.5768 29.2373 39.6982 32.1242 37.8536C35.4466 35.7652 37.9755 32.4492 39.0977 28.6863C40.0651 25.482 40.0182 21.9807 38.9619 18.8043C37.8079 15.2991 35.4275 12.2142 32.3337 10.2032C29.4201 8.27988 25.8756 7.34805 22.392 7.56133Z" fill="white"/>
<path d="M22.6482 11.3623C25.4412 11.1985 28.2812 11.9945 30.5689 13.6068C33.0952 15.3601 34.9449 18.0629 35.6432 21.0603C36.3351 23.9599 35.9542 27.102 34.573 29.7464C33.1193 32.5736 30.5612 34.8131 27.5575 35.8617C24.5538 36.9357 21.1413 36.7961 18.2328 35.4859C15.4576 34.2545 13.161 31.9871 11.8966 29.2259C10.5915 26.4202 10.3884 23.1258 11.3228 20.1779C12.2584 17.1768 14.3684 14.5729 17.0953 13.0127C18.7838 12.0415 20.7021 11.4677 22.6482 11.3623Z" fill="white"/>
<path d="M1.08545 59.6781C2.8209 54.2801 4.5208 48.8706 6.28291 43.4814C6.67773 43.6236 7.07383 43.7582 7.46865 43.8979C8.63789 45.806 9.82744 47.7026 10.9827 49.6184C13.2146 49.3898 15.4388 49.0839 17.6668 48.8313C19.1331 49.7072 20.5537 50.6645 22.0035 51.5722C20.574 56.0485 19.1471 60.5262 17.7049 64.9975C15.2775 63.0513 12.8489 61.1076 10.4152 59.169C7.30488 59.3366 4.1958 59.5245 1.08545 59.6781Z" fill="white"/>
<path d="M39.2539 43.9004C39.6564 43.762 40.0601 43.6249 40.4638 43.4878C42.184 48.8871 43.9182 54.2814 45.6409 59.6807C42.5318 59.5017 39.4228 59.3354 36.3124 59.169C33.88 61.1114 31.4526 63.0589 29.0177 64.9987C27.5844 60.5249 26.1485 56.0511 24.7241 51.5734C26.1714 50.6632 27.6034 49.7313 29.0494 48.8211C31.2851 49.0725 33.5156 49.386 35.7538 49.6107C36.8977 47.6938 38.0948 45.8085 39.2539 43.9004Z" fill="white"/>
</svg>
