<svg width="57" height="41" viewBox="0 0 57 41" fill="none" xmlns="http://www.w3.org/2000/svg">
<path d="M2.27637 0.386995C2.87328 0.124261 3.5209 -0.0128687 4.17428 0.00095938C20.0732 0.00095938 35.9732 0.00095938 51.8732 0.00095938C52.5266 -0.0128687 53.1765 0.123108 53.7735 0.388147C46.1576 8.01666 38.5291 15.6348 30.9075 23.2587C30.1596 24.0273 29.1006 24.4848 28.0255 24.4779C26.9469 24.4871 25.8856 24.0204 25.1366 23.2483C17.5161 15.6279 9.89451 8.00975 2.27637 0.386995Z" fill="white"/>
<path d="M0.000651791 4.11828C-0.0097193 3.4845 0.128562 2.85647 0.390144 2.2803C6.30858 8.18951 12.219 14.1068 18.1339 20.0206C12.219 25.9345 6.30858 31.8529 0.388992 37.7621C0.130867 37.1848 -0.0108716 36.5579 0.000651791 35.9241C0.000651791 25.3226 0.000651791 14.721 0.000651791 4.11828Z" fill="white"/>
<path d="M37.9209 20.0206C43.8347 14.1068 49.7474 8.19297 55.6612 2.2803C55.9228 2.85532 56.0576 3.48219 56.0507 4.11483C56.0507 14.7175 56.0507 25.3214 56.0507 35.9241C56.0599 36.5579 55.9205 37.1836 55.6635 37.7621C49.7474 31.8506 43.8347 25.9345 37.9209 20.0206Z" fill="white"/>
<path d="M2.27783 39.6543C8.19051 33.7358 14.1055 27.8208 20.0228 21.9082C21.0426 22.9291 22.0647 23.9467 23.0811 24.9711C23.7932 25.7086 24.6437 26.3239 25.607 26.6881C27.929 27.6284 30.7522 27.0845 32.5672 25.3617C33.7357 24.2255 34.8742 23.0571 36.0311 21.9082C41.9484 27.8197 47.8634 33.7335 53.7749 39.652C53.1803 39.9158 52.535 40.0518 51.8851 40.0403C36.0553 40.0414 20.2256 40.0391 4.39584 40.0414C3.67102 40.0668 2.94158 39.9527 2.27783 39.6543Z" fill="white"/>
</svg>
