<svg width="63" height="45" viewBox="0 0 63 45" fill="none" xmlns="http://www.w3.org/2000/svg">
<path d="M2.56152 0.434974C3.23243 0.139667 3.96033 -0.0144642 4.6947 0.00107832C22.5645 0.00107832 40.4355 0.00107832 58.3066 0.00107832C59.041 -0.0144642 59.7714 0.138371 60.4424 0.436269C51.8824 9.01055 43.3083 17.5732 34.7419 26.1423C33.9013 27.0062 32.711 27.5204 31.5026 27.5126C30.2903 27.523 29.0974 26.9984 28.2555 26.1306C19.6904 17.5654 11.124 9.00278 2.56152 0.434974Z" fill="white"/>
<path d="M0.000732589 4.62903C-0.0109241 3.91667 0.144499 3.21078 0.438508 2.56317C7.09062 9.20501 13.7337 15.8559 20.3819 22.5029C13.7337 29.1499 7.09062 35.8021 0.437212 42.444C0.147089 41.7951 -0.0122193 41.0905 0.000732589 40.3781C0.000732589 28.4622 0.000732589 16.5463 0.000732589 4.62903Z" fill="white"/>
<path d="M42.6226 22.5029C49.2695 15.8559 55.9151 9.20886 62.562 2.56314C62.8561 3.20945 63.0076 3.91404 62.9998 4.62511C62.9998 16.5423 62.9998 28.4609 62.9998 40.3781C63.0102 41.0905 62.8535 41.7937 62.5646 42.4439C55.9151 35.7995 49.2695 29.1499 42.6226 22.5029Z" fill="white"/>
<path d="M2.56299 44.5705C9.20862 37.9183 15.8568 31.27 22.5076 24.6242C23.6539 25.7718 24.8027 26.9155 25.9451 28.0669C26.7455 28.8958 27.7014 29.5875 28.7841 29.9968C31.394 31.0537 34.5672 30.4423 36.6071 28.506C37.9204 27.2289 39.2001 25.9156 40.5005 24.6242C47.1513 31.2687 53.7995 37.9157 60.4438 44.5679C59.7755 44.8645 59.0502 45.0173 58.3197 45.0044C40.5277 45.0057 22.7356 45.0031 4.94355 45.0057C4.12887 45.0341 3.30902 44.9059 2.56299 44.5705Z" fill="white"/>
</svg>
