<svg width="66" height="58" viewBox="0 0 66 58" fill="none" xmlns="http://www.w3.org/2000/svg">
<path d="M33 0C32.6033 5.17837e-05 32.2105 0.080176 31.8444 0.235734C31.4783 0.391293 31.1461 0.619195 30.8672 0.90625L0.609375 27.7718C0.420402 27.9137 0.266811 28.0987 0.160969 28.3121C0.0551269 28.5254 -9.02309e-06 28.761 1.10757e-09 29C1.10758e-09 29.4048 0.158035 29.793 0.43934 30.0793C0.720644 30.3655 1.10218 30.5263 1.5 30.5263H9V54.9474C9 56.6324 10.344 58 12 58H24C25.656 58 27 56.6324 27 54.9474V36.6316H39V54.9474C39 56.6324 40.344 58 42 58H54C55.656 58 57 56.6324 57 54.9474V30.5263H64.5C64.8978 30.5263 65.2794 30.3655 65.5607 30.0793C65.842 29.793 66 29.4048 66 29C66 28.761 65.9449 28.5254 65.839 28.3121C65.7332 28.0987 65.5796 27.9137 65.3906 27.7718L35.1504 0.924137C35.1446 0.91815 35.1387 0.912187 35.1328 0.90625C34.8539 0.619195 34.5217 0.391293 34.1556 0.235734C33.7895 0.080176 33.3967 5.17837e-05 33 0Z" fill="white"/>
</svg>
