<svg width="63" height="63" viewBox="0 0 63 63" fill="none" xmlns="http://www.w3.org/2000/svg">
<path d="M17.5 0C7.8505 0 0 7.8505 0 17.5V45.5C0 55.1495 7.8505 63 17.5 63H45.5C55.1495 63 63 55.1495 63 45.5V17.5C63 7.8505 55.1495 0 45.5 0H17.5ZM17.5 7H45.5C51.289 7 56 11.711 56 17.5V45.5C56 51.289 51.289 56 45.5 56H17.5C11.711 56 7 51.289 7 45.5V17.5C7 11.711 11.711 7 17.5 7ZM49 10.5C48.0717 10.5 47.1815 10.8687 46.5251 11.5251C45.8687 12.1815 45.5 13.0717 45.5 14C45.5 14.9283 45.8687 15.8185 46.5251 16.4749C47.1815 17.1313 48.0717 17.5 49 17.5C49.9283 17.5 50.8185 17.1313 51.4749 16.4749C52.1313 15.8185 52.5 14.9283 52.5 14C52.5 13.0717 52.1313 12.1815 51.4749 11.5251C50.8185 10.8687 49.9283 10.5 49 10.5ZM31.5 14C21.8505 14 14 21.8505 14 31.5C14 41.1495 21.8505 49 31.5 49C41.1495 49 49 41.1495 49 31.5C49 21.8505 41.1495 14 31.5 14ZM31.5 21C37.289 21 42 25.711 42 31.5C42 37.289 37.289 42 31.5 42C25.711 42 21 37.289 21 31.5C21 25.711 25.711 21 31.5 21Z" fill="white"/>
</svg>
