<svg width="63" height="62" viewBox="0 0 63 62" fill="none" xmlns="http://www.w3.org/2000/svg">
<path d="M55.5 0H7.5C3.36 0 0 3.30667 0 7.38095V54.619C0 58.6933 3.36 62 7.5 62H55.5C59.64 62 63 58.6933 63 54.619V7.38095C63 3.30667 59.64 0 55.5 0ZM19.5 23.619V51.6667H10.5V23.619H19.5ZM10.5 15.4557C10.5 13.389 12.3 11.8095 15 11.8095C17.7 11.8095 19.395 13.389 19.5 15.4557C19.5 17.5224 17.82 19.1905 15 19.1905C12.3 19.1905 10.5 17.5224 10.5 15.4557ZM52.5 51.6667H43.5C43.5 51.6667 43.5 37.9971 43.5 36.9048C43.5 33.9524 42 31 38.25 30.941H38.13C34.5 30.941 33 33.9819 33 36.9048C33 38.2481 33 51.6667 33 51.6667H24V23.619H33V27.3981C33 27.3981 35.895 23.619 41.715 23.619C47.67 23.619 52.5 27.649 52.5 35.8124V51.6667Z" fill="white"/>
</svg>
