<svg width="34" height="34" viewBox="0 0 34 34" fill="none" xmlns="http://www.w3.org/2000/svg">
<path d="M32.0574 0.000786551C31.9871 0.00300976 31.9169 0.00916464 31.8472 0.0192223H22.6548C22.4046 0.0156844 22.1562 0.0619008 21.9241 0.155185C21.6919 0.248469 21.4806 0.386961 21.3025 0.562612C21.1243 0.738264 20.9829 0.947571 20.8863 1.17837C20.7897 1.40917 20.74 1.65686 20.74 1.90704C20.74 2.15723 20.7897 2.40492 20.8863 2.63572C20.9829 2.86652 21.1243 3.07582 21.3025 3.25147C21.4806 3.42713 21.6919 3.56562 21.9241 3.6589C22.1562 3.75219 22.4046 3.7984 22.6548 3.79486H27.5368L9.99259 21.3383C9.8114 21.5123 9.66675 21.7206 9.5671 21.9512C9.46744 22.1818 9.4148 22.4299 9.41224 22.681C9.40969 22.9322 9.45727 23.1813 9.55221 23.4139C9.64715 23.6464 9.78754 23.8577 9.96515 24.0353C10.1428 24.2129 10.354 24.3532 10.5866 24.4482C10.8191 24.5431 11.0683 24.5907 11.3194 24.5882C11.5706 24.5856 11.8187 24.533 12.0493 24.4333C12.2799 24.3337 12.4882 24.189 12.6622 24.0078L30.2064 6.46436V11.3461C30.2029 11.5963 30.2491 11.8447 30.3424 12.0768C30.4356 12.309 30.5741 12.5202 30.7498 12.6984C30.9255 12.8766 31.1348 13.018 31.3656 13.1146C31.5964 13.2111 31.8441 13.2609 32.0943 13.2609C32.3445 13.2609 32.5922 13.2111 32.823 13.1146C33.0538 13.018 33.2631 12.8766 33.4388 12.6984C33.6144 12.5202 33.7529 12.309 33.8462 12.0768C33.9395 11.8447 33.9857 11.5963 33.9822 11.3461V2.14671C34.0198 1.87491 33.9977 1.59818 33.9174 1.33579C33.8372 1.07341 33.7007 0.831665 33.5175 0.627401C33.3343 0.423138 33.1087 0.261261 32.8566 0.153044C32.6044 0.0448257 32.3317 -0.00713252 32.0574 0.000786551ZM3.7758 0.0192223C1.71221 0.0192223 0 1.73136 0 3.79486V30.2244C0 32.2879 1.71221 34 3.7758 34H30.2064C32.27 34 33.9822 32.2879 33.9822 30.2244V18.8974C33.9857 18.6473 33.9395 18.3989 33.8462 18.1668C33.7529 17.9346 33.6144 17.7233 33.4388 17.5452C33.2631 17.367 33.0538 17.2256 32.823 17.129C32.5922 17.0324 32.3445 16.9827 32.0943 16.9827C31.8441 16.9827 31.5964 17.0324 31.3656 17.129C31.1348 17.2256 30.9255 17.367 30.7498 17.5452C30.5741 17.7233 30.4356 17.9346 30.3424 18.1668C30.2491 18.3989 30.2029 18.6473 30.2064 18.8974V30.2244H3.7758V3.79486H15.1032C15.3534 3.7984 15.6017 3.75219 15.8339 3.6589C16.066 3.56562 16.2773 3.42713 16.4555 3.25147C16.6337 3.07582 16.7751 2.86652 16.8717 2.63572C16.9683 2.40492 17.018 2.15723 17.018 1.90704C17.018 1.65686 16.9683 1.40917 16.8717 1.17837C16.7751 0.947571 16.6337 0.738264 16.4555 0.562612C16.2773 0.386961 16.066 0.248469 15.8339 0.155185C15.6017 0.0619008 15.3534 0.0156844 15.1032 0.0192223H3.7758Z" fill="white"/>
</svg>
