<svg width="70" height="51" viewBox="0 0 70 51" fill="none" xmlns="http://www.w3.org/2000/svg">
<path d="M8.84144 0.0390355C9.02644 0.0130199 9.21144 1.14441e-05 9.39933 1.14441e-05C26.3095 0.00434738 43.2196 -0.00287936 60.1283 0.0043472C61.3583 -0.0231137 62.4697 1.07677 62.4365 2.30962C62.4365 11.5625 62.4365 20.8168 62.4365 30.0697C62.448 30.9918 61.8381 31.8821 60.9767 32.2073C60.4333 32.4371 59.832 32.3678 59.2582 32.3764C42.5866 32.3736 25.9149 32.3808 9.24323 32.3736C8.01472 32.3967 6.90328 31.2997 6.93652 30.0683C6.93652 20.814 6.93652 11.5596 6.93652 2.30528C6.91339 1.21841 7.7748 0.213918 8.84144 0.0390355Z" fill="white"/>
<path d="M8.4426 34.7756C8.65795 34.712 8.88342 34.6933 9.10744 34.6889C26.1592 34.6889 43.211 34.6889 60.2628 34.6889C61.117 34.6701 61.9365 35.1803 62.3282 35.9348C64.6045 40.0684 66.8881 44.1991 69.163 48.3341C69.4608 48.8385 69.4261 49.5178 69.0532 49.976C68.5763 50.5584 67.8218 50.8865 67.0717 50.875C45.4859 50.8779 23.8988 50.8764 2.31303 50.875C1.52678 50.8894 0.726077 50.5353 0.256351 49.8965C-0.0688442 49.4427 -0.0818522 48.8067 0.201429 48.3298C2.4749 44.1976 4.75561 40.0698 7.03053 35.9391C7.32104 35.3827 7.83846 34.9491 8.4426 34.7756ZM29.6511 41.664C28.5194 41.8418 27.6465 42.9619 27.7563 44.1037C27.8112 45.2744 28.8938 46.2731 30.0645 46.2485C33.1459 46.2529 36.2273 46.2529 39.3087 46.2485C40.5415 46.2818 41.6544 45.1718 41.6212 43.9389C41.6501 42.7118 40.5488 41.5961 39.3174 41.6293C36.3328 41.6206 33.3482 41.6322 30.3622 41.6235C30.1252 41.625 29.8852 41.6264 29.6511 41.664Z" fill="white"/>
</svg>
